<svg width="13" height="14" viewBox="0 0 13 14" fill="none" xmlns="http://www.w3.org/2000/svg">
<g clip-path="url(#clip0_79_1329)">
<path d="M11.0962 2.24866C9.86852 1.02098 8.23621 0.344849 6.5 0.344849C4.76379 0.344849 3.13148 1.02098 1.90379 2.24866C0.676102 3.47635 0 5.10864 0 6.84485C0 8.58106 0.676102 10.2134 1.90379 11.441C3.13148 12.6687 4.76379 13.3448 6.5 13.3448C8.23621 13.3448 9.86852 12.6687 11.0962 11.441C12.3239 10.2133 13 8.58106 13 6.84485C13 5.10864 12.3239 3.47633 11.0962 2.24866ZM6.5 12.069C3.61936 12.069 1.27583 9.72547 1.27583 6.84485C1.27583 6.84013 1.27598 6.83545 1.27601 6.83078C1.27601 6.82959 1.27583 6.82845 1.27583 6.82725C1.27583 6.82525 1.27608 6.82332 1.27613 6.82134C1.2888 3.97523 3.58886 1.65968 6.42901 1.62159C6.43495 1.62131 6.44084 1.6207 6.44686 1.6207C6.45046 1.6207 6.45397 1.62113 6.45755 1.62124C6.47171 1.62113 6.48583 1.6207 6.50003 1.6207C9.38067 1.6207 11.7242 3.96426 11.7242 6.84487C11.7242 9.72549 9.38064 12.069 6.5 12.069Z" fill="black"/>
<path d="M10.4685 7.15867C10.2561 7.15867 10.0839 6.98647 10.0839 6.77406C10.0839 6.56164 10.2561 6.38944 10.4685 6.38944H10.9321C10.7144 4.2547 8.9831 2.56122 6.83175 2.40222V2.80581C6.83175 3.01822 6.65955 3.19042 6.44713 3.19042C6.23471 3.19042 6.06252 3.01822 6.06252 2.80581V2.41141C3.94301 2.61911 2.25471 4.3183 2.0637 6.44258H2.47888C2.6913 6.44258 2.8635 6.61478 2.8635 6.8272C2.8635 7.03962 2.6913 7.21182 2.47888 7.21182H2.06055C2.23739 9.3703 3.95954 11.0977 6.11568 11.283V10.7954C6.11568 10.583 6.28788 10.4108 6.5003 10.4108C6.71272 10.4108 6.88492 10.583 6.88492 10.7954V11.283C9.05871 11.0962 10.7913 9.34186 10.944 7.15867H10.4685ZM8.05725 5.83181L6.77229 7.1168C6.70015 7.18894 6.60235 7.22946 6.50033 7.22946C6.39833 7.22946 6.30048 7.18894 6.22837 7.1168L3.99163 4.88007C3.84142 4.72988 3.84142 4.48636 3.99163 4.33615C4.14182 4.18594 4.38534 4.18594 4.53555 4.33615L6.50035 6.30093L7.51339 5.28789C7.66357 5.13768 7.90709 5.13768 8.0573 5.28789C8.20746 5.43808 8.20747 5.68162 8.05725 5.83181Z" fill="black"/>
</g>
<defs>
<clipPath id="clip0_79_1329">
<rect width="13" height="13" fill="white" transform="translate(0 0.344849)"/>
</clipPath>
</defs>
</svg>
