<svg width="166" height="50" viewBox="0 0 166 50" fill="none" xmlns="http://www.w3.org/2000/svg">
<path d="M0.814466 17.3359H0.30542L1.7562 10.2686H26.0886V10.7245L25.9105 10.8005C24.2815 11.3578 23.2634 12.8017 23.2634 14.4735V39.1206C23.2634 40.7418 24.2815 42.211 25.9105 42.7936L28.8629 43.4776L26.1141 43.3256H1.7562L0.30542 36.2329H0.789014L0.96718 36.7142C2.21434 39.8046 5.37043 41.8817 8.78104 41.8817H17.5112V27.4937H10.2064C7.35571 27.4937 5.16681 29.3429 4.58141 32.0533V32.2053H4.09782V21.3636H4.58141V21.4649C5.14136 24.226 7.35571 26.0751 10.2064 26.0751H17.5366V11.6618H8.80649C5.39588 11.6618 2.2398 13.7389 0.992632 16.88L0.814466 17.3359Z" fill="white"/>
<path d="M48.3339 42.7936C47.1885 42.6416 45.6869 42.7936 44.4142 43.1229C43.2689 43.4522 41.9454 43.8069 40.2401 43.8069C32.2735 43.8069 25.605 37.0941 25.605 27.0377C25.605 16.7787 32.5535 9.78729 41.4618 9.78729C43.9306 9.78729 46.1959 10.3192 48.2066 11.3072C48.5375 11.4591 48.8429 11.5351 49.1484 11.5351C49.861 11.5351 50.3955 11.1298 50.3955 10.2939H50.8537V18.9825H50.3955C49.861 14.4989 46.425 11.2058 41.3854 11.2058C34.6406 11.2058 31.2808 17.2853 31.2808 26.6831C31.2808 37.5248 35.6332 42.363 41.3091 42.363C43.0907 42.363 44.7706 41.8817 46.1195 40.8938V32.3572C46.1195 30.6601 45.1015 29.1909 43.4725 28.6589L43.2943 28.6082V28.1776H54.6715V28.5829L54.4934 28.6589C52.8899 29.1909 51.8463 30.6601 51.8463 32.3572V43.3002L48.3339 42.7936Z" fill="white"/>
<path d="M75.0079 9.78729C83.9671 9.78729 90.4575 16.7787 90.4575 27.0377C90.4575 37.6514 83.5599 43.8069 74.8552 43.8069C65.8196 43.8069 59.1511 37.0941 59.1511 27.0377C59.1511 16.7787 66.0996 9.78729 75.0079 9.78729ZM74.8552 42.363C80.6329 42.363 84.7562 37.3475 84.7562 26.5818C84.7562 16.5253 81.1165 11.2058 74.8552 11.2058C68.1867 11.2058 64.827 17.2853 64.827 26.6831C64.827 37.5248 69.2048 42.363 74.8552 42.363Z" fill="white"/>
<path d="M103.795 23.846C103.795 23.846 103.845 25.8472 103.845 27.519V39.1206C103.845 40.7418 104.914 42.211 106.492 42.7936L106.671 42.819V43.3002H95.2935V42.819L95.4716 42.7936C97.1006 42.2363 98.1187 40.7671 98.1187 39.1206V27.519C98.1187 25.8472 98.0932 23.8713 98.0932 23.8713H99.7476H100.842L102.216 23.846H103.795Z" fill="#11E3CA" stroke="#11E3CA" stroke-width="2" stroke-miterlimit="10"/>
<path d="M114.612 41.6537C113.543 41.6537 112.83 42.4137 112.83 43.8069H112.346V33.6998H112.754C113.441 38.386 117.31 42.3883 123.342 42.3883C128.458 42.3883 130.519 39.3993 130.519 36.5622C130.519 29.4948 112.83 27.6963 112.83 17.9945C112.83 13.283 117.03 9.78729 124.029 9.78729C126.752 9.78729 129.145 10.3192 131.156 11.3072C131.487 11.4591 131.792 11.5351 132.097 11.5351C132.81 11.5351 133.345 11.1298 133.345 10.2939H133.803V18.9825H133.395C132.836 14.5749 129.374 11.2058 124.258 11.2058C119.397 11.2058 117.615 14.1189 117.615 16.3734C117.615 23.3141 135.254 24.8339 135.254 34.8397C135.254 39.0953 132.683 43.7815 124.029 43.7815C120.542 43.7815 118.073 43.0723 116.139 42.0337C115.604 41.8057 115.07 41.6537 114.612 41.6537Z" fill="white"/>
<path d="M165.007 16.88C163.684 13.7389 160.579 11.6618 157.193 11.6618H155.641V39.1206C155.641 40.8178 156.735 42.2617 158.288 42.7936L158.466 42.819V43.3002H147.089V42.819L147.318 42.7936C148.871 42.2617 149.94 40.8178 149.94 39.1206V11.6618H148.412C145.027 11.6618 141.922 13.7389 140.599 16.88L140.42 17.3359H139.937L141.388 10.2686H164.269L165.72 17.3359H165.185L165.007 16.88Z" fill="white"/>
<path d="M109.063 11.0285C108.554 10.5219 107.46 10.4206 105.678 10.4459V10.3446C105.678 9.7873 105.704 9.25535 105.729 8.72339C105.856 6.34228 106.238 4.21447 106.925 2.23865C107.052 1.88402 107.002 1.47872 106.823 1.12409C106.62 0.794782 106.314 0.566803 105.933 0.49081C102.675 -0.117135 99.3404 -0.117135 96.0825 0.49081C95.7008 0.566803 95.3699 0.794782 95.1917 1.12409C94.9881 1.45339 94.9626 1.85869 95.0899 2.23865C95.9298 4.72109 96.3116 7.35552 96.3371 9.98995C96.3371 10.1419 96.3371 10.2939 96.3371 10.4459C94.5554 10.4206 93.461 10.5219 92.9519 11.0285C92.7483 11.2312 92.6465 11.4845 92.6465 11.7884C92.6465 13.5616 96.5661 15.1068 101.02 15.1068C105.474 15.1068 109.394 13.5616 109.394 11.7884C109.369 11.4845 109.267 11.2058 109.063 11.0285ZM97.0243 2.21332C97.1006 2.112 97.2024 2.036 97.3297 2.01067C98.5005 1.83335 99.7222 1.75736 100.893 1.75736C101.122 1.75736 101.326 1.93468 101.326 2.18799C101.326 2.41597 101.122 2.61862 100.893 2.61862C99.9004 2.61862 98.9078 2.69461 97.9151 2.79593C98.1696 3.73318 98.3733 4.69576 98.526 5.75966C98.5769 5.98764 98.3987 6.21562 98.1696 6.24095C98.1442 6.24095 98.1187 6.24095 98.0933 6.24095C97.8897 6.24095 97.7115 6.08897 97.686 5.88632C97.5079 4.67043 97.2788 3.5812 96.9479 2.54262C96.9479 2.4413 96.9734 2.31464 97.0243 2.21332ZM104.813 10.5219C102.293 11.0792 99.7222 11.0792 97.177 10.5219C97.177 10.2686 97.177 8.92604 97.1515 8.2421C99.6713 8.82472 102.318 8.82472 104.838 8.2421C104.813 9.02737 104.813 9.98995 104.813 10.5219Z" fill="#11E3CA"/>
<path d="M105.602 16.2974C105.449 16.2467 105.296 16.2974 105.194 16.3987C105.093 16.5 105.042 16.652 105.067 16.804C105.093 16.956 105.143 17.2346 105.067 17.336C105.016 17.412 104.889 17.4373 104.762 17.412C104.584 17.3866 104.405 17.2853 104.227 17.1586C104.125 17.0826 104.024 17.032 103.922 16.956C103.438 16.6014 102.878 16.2214 102.191 16.1961C101.758 16.1707 101.326 16.3227 100.969 16.6014C100.638 16.3227 100.18 16.1707 99.7476 16.1961C99.0604 16.2214 98.5004 16.6014 98.0168 16.956C97.915 17.032 97.8132 17.108 97.7114 17.1586C97.5587 17.26 97.3551 17.3866 97.1769 17.412C97.0496 17.4373 96.9224 17.3866 96.8715 17.336C96.7951 17.2346 96.846 16.956 96.8715 16.7787C96.8969 16.6267 96.846 16.4747 96.7442 16.3987C96.6424 16.2974 96.4897 16.2467 96.337 16.2974C95.7007 16.4747 95.1916 17.0826 95.1153 17.7666C94.988 18.8305 95.7516 19.9451 97.2532 20.3504C98.5259 20.6797 99.9003 20.401 100.944 19.6411C101.707 20.1984 102.624 20.5023 103.565 20.5023C105.754 20.5023 106.951 19.0585 106.798 17.7919C106.747 17.0826 106.238 16.4747 105.602 16.2974Z" fill="#11E3CA"/>
</svg>
